<svg width="800" height="234" viewBox="0 0 800 234" fill="none" xmlns="http://www.w3.org/2000/svg">
<g id="Logo">
<g id="name">
<path d="M116 51.6094H146.586C159.852 51.6094 169.859 53.5312 176.609 57.375C183.359 61.2188 186.734 67.8516 186.734 77.2734C186.734 81.2109 186.031 84.7734 184.625 87.9609C183.266 91.1016 181.273 93.7031 178.648 95.7656C176.023 97.7812 172.789 99.1406 168.945 99.8438V100.547C172.93 101.25 176.469 102.492 179.562 104.273C182.703 106.055 185.164 108.609 186.945 111.938C188.773 115.266 189.688 119.578 189.688 124.875C189.688 131.156 188.188 136.5 185.188 140.906C182.234 145.312 177.992 148.664 172.461 150.961C166.977 153.258 160.461 154.406 152.914 154.406H116V51.6094ZM132.875 94.0078H149.047C156.688 94.0078 161.984 92.7656 164.938 90.2812C167.891 87.7969 169.367 84.1641 169.367 79.3828C169.367 74.5078 167.609 70.9922 164.094 68.8359C160.625 66.6797 155.094 65.6016 147.5 65.6016H132.875V94.0078ZM132.875 107.648V140.273H150.664C158.539 140.273 164.07 138.75 167.258 135.703C170.445 132.656 172.039 128.531 172.039 123.328C172.039 120.141 171.312 117.375 169.859 115.031C168.453 112.688 166.133 110.883 162.898 109.617C159.664 108.305 155.305 107.648 149.82 107.648H132.875Z" fill="#ECB365"/>
<path d="M240.242 75.0938C247.18 75.0938 253.133 76.5234 258.102 79.3828C263.07 82.2422 266.891 86.2969 269.562 91.5469C272.234 96.7969 273.57 103.078 273.57 110.391V119.25H221.609C221.797 126.797 223.812 132.609 227.656 136.688C231.547 140.766 236.984 142.805 243.969 142.805C248.938 142.805 253.391 142.336 257.328 141.398C261.312 140.414 265.414 138.984 269.633 137.109V150.539C265.742 152.367 261.781 153.703 257.75 154.547C253.719 155.391 248.891 155.812 243.266 155.812C235.625 155.812 228.898 154.336 223.086 151.383C217.32 148.383 212.797 143.93 209.516 138.023C206.281 132.117 204.664 124.781 204.664 116.016C204.664 107.297 206.141 99.8906 209.094 93.7969C212.047 87.7031 216.195 83.0625 221.539 79.875C226.883 76.6875 233.117 75.0938 240.242 75.0938ZM240.242 87.5391C235.039 87.5391 230.82 89.2266 227.586 92.6016C224.398 95.9766 222.523 100.922 221.961 107.438H257.398C257.352 103.547 256.695 100.102 255.43 97.1016C254.211 94.1016 252.336 91.7578 249.805 90.0703C247.32 88.3828 244.133 87.5391 240.242 87.5391Z" fill="#ECB365"/>
<path d="M344.516 132.188C344.516 137.297 343.273 141.609 340.789 145.125C338.305 148.641 334.672 151.312 329.891 153.141C325.156 154.922 319.344 155.812 312.453 155.812C307.016 155.812 302.328 155.414 298.391 154.617C294.5 153.867 290.82 152.695 287.352 151.102V136.828C291.055 138.562 295.203 140.062 299.797 141.328C304.438 142.594 308.82 143.227 312.945 143.227C318.383 143.227 322.297 142.383 324.688 140.695C327.078 138.961 328.273 136.664 328.273 133.805C328.273 132.117 327.781 130.617 326.797 129.305C325.859 127.945 324.078 126.562 321.453 125.156C318.875 123.703 315.078 121.969 310.062 119.953C305.141 117.984 300.992 116.016 297.617 114.047C294.242 112.078 291.688 109.711 289.953 106.945C288.219 104.133 287.352 100.547 287.352 96.1875C287.352 89.2969 290.07 84.0703 295.508 80.5078C300.992 76.8984 308.234 75.0938 317.234 75.0938C322.016 75.0938 326.516 75.5859 330.734 76.5703C335 77.5078 339.172 78.8906 343.25 80.7188L338.047 93.1641C334.531 91.6172 330.992 90.3516 327.43 89.3672C323.914 88.3359 320.328 87.8203 316.672 87.8203C312.406 87.8203 309.148 88.4766 306.898 89.7891C304.695 91.1016 303.594 92.9766 303.594 95.4141C303.594 97.2422 304.133 98.7891 305.211 100.055C306.289 101.32 308.141 102.586 310.766 103.852C313.438 105.117 317.141 106.688 321.875 108.562C326.516 110.344 330.523 112.219 333.898 114.188C337.32 116.109 339.945 118.477 341.773 121.289C343.602 124.102 344.516 127.734 344.516 132.188Z" fill="#ECB365"/>
<path d="M378.898 45V72.4922C378.898 75.3516 378.805 78.1406 378.617 80.8594C378.477 83.5781 378.312 85.6875 378.125 87.1875H379.039C380.68 84.4688 382.695 82.2422 385.086 80.5078C387.477 78.7266 390.148 77.3906 393.102 76.5C396.102 75.6094 399.289 75.1641 402.664 75.1641C408.617 75.1641 413.68 76.1719 417.852 78.1875C422.023 80.1562 425.211 83.2266 427.414 87.3984C429.664 91.5703 430.789 96.9844 430.789 103.641V154.406H414.266V106.734C414.266 100.688 413.023 96.1641 410.539 93.1641C408.055 90.1172 404.211 88.5938 399.008 88.5938C393.992 88.5938 390.008 89.6484 387.055 91.7578C384.148 93.8203 382.062 96.8906 380.797 100.969C379.531 105 378.898 109.922 378.898 115.734V154.406H362.375V45H378.898Z" fill="#ECB365"/>
<path d="M522.828 115.312C522.828 121.781 521.984 127.523 520.297 132.539C518.609 137.555 516.148 141.797 512.914 145.266C509.68 148.688 505.789 151.312 501.242 153.141C496.695 154.922 491.562 155.812 485.844 155.812C480.5 155.812 475.602 154.922 471.148 153.141C466.695 151.312 462.828 148.688 459.547 145.266C456.312 141.797 453.805 137.555 452.023 132.539C450.242 127.523 449.352 121.781 449.352 115.312C449.352 106.734 450.828 99.4688 453.781 93.5156C456.781 87.5156 461.047 82.9453 466.578 79.8047C472.109 76.6641 478.695 75.0938 486.336 75.0938C493.508 75.0938 499.836 76.6641 505.32 79.8047C510.805 82.9453 515.094 87.5156 518.188 93.5156C521.281 99.5156 522.828 106.781 522.828 115.312ZM466.367 115.312C466.367 120.984 467.047 125.836 468.406 129.867C469.812 133.898 471.969 136.992 474.875 139.148C477.781 141.258 481.531 142.312 486.125 142.312C490.719 142.312 494.469 141.258 497.375 139.148C500.281 136.992 502.414 133.898 503.773 129.867C505.133 125.836 505.812 120.984 505.812 115.312C505.812 109.641 505.133 104.836 503.773 100.898C502.414 96.9141 500.281 93.8906 497.375 91.8281C494.469 89.7188 490.695 88.6641 486.055 88.6641C479.211 88.6641 474.219 90.9609 471.078 95.5547C467.938 100.148 466.367 106.734 466.367 115.312Z" fill="#ECB365"/>
<path d="M530.07 76.5703H548.07L564.031 121.008C564.734 123.023 565.367 125.016 565.93 126.984C566.539 128.906 567.055 130.805 567.477 132.68C567.945 134.555 568.32 136.43 568.602 138.305H569.023C569.492 135.867 570.148 133.148 570.992 130.148C571.883 127.102 572.867 124.055 573.945 121.008L589.273 76.5703H607.062L573.664 165.094C571.742 170.156 569.375 174.469 566.562 178.031C563.797 181.641 560.516 184.359 556.719 186.188C552.922 188.062 548.586 189 543.711 189C541.367 189 539.328 188.859 537.594 188.578C535.859 188.344 534.383 188.086 533.164 187.805V174.586C534.148 174.82 535.391 175.031 536.891 175.219C538.391 175.406 539.938 175.5 541.531 175.5C544.484 175.5 547.039 174.914 549.195 173.742C551.352 172.57 553.18 170.906 554.68 168.75C556.18 166.641 557.422 164.227 558.406 161.508L561.148 154.195L530.07 76.5703Z" fill="#ECB365"/>
</g>
<g id="closeTag">
<path d="M673.809 39L626.213 169H607L654.596 39H673.809Z" fill="#ECB365"/>
<path d="M683.677 132.01L747.691 104.8L683.677 74.212V56.9617L769 100.176V110.758L683.677 149.171V132.01Z" fill="#ECB365"/>
</g>
<path id="openTag" d="M97 58L12 96.3259L12 106.883L97 150V132.789L33.2282 102.359L97 75.1225V58Z" fill="#ECB365"/>
</g>
</svg>
